<?xml version="1.0" encoding="UTF-8" standalone="no"?>
<!-- Generator: Adobe Illustrator 21.1.0, SVG Export Plug-In . SVG Version: 6.00 Build 0)  -->

<svg xmlns="http://www.w3.org/2000/svg" viewBox="0 0 344.35 65.42" class="">
    <defs>
        <style>
            .mantu-logo-1,
            .mantu-logo-2,
            .mantu-logo-3,
            .mantu-logo-4,
            .mantu-logo-5 {
                fill: currentColor;
            }

            .mantu-logo-2 {
                opacity: 0.85;
            }

            .mantu-logo-2,
            .mantu-logo-3,
            .mantu-logo-4,
            .mantu-logo-5 {
                isolation: isolate;
            }

            .mantu-logo-3 {
                opacity: 0.7;
            }

            .mantu-logo-4 {
                opacity: 0.55;
            }

            .mantu-logo-5 {
                opacity: 0.38;
            }
        </style>
    </defs>
    <title>logo-mantu</title>
    <g id="Layer_2" data-name="Layer 2">
        <g id="Layer_1-2" data-name="Layer 1">
            <g>
                <path class="mantu-logo-2" d="M90.2,64.94a10.88,10.88,0,0,1-10-6.69l-18-43.17a10.88,10.88,0,0,1,20.07-8.4v0l18,43.17a10.88,10.88,0,0,1-10,15.07Z"></path>
                <path class="mantu-logo-3" d="M50.53,64.94a10.88,10.88,0,0,1-9.72-15.75L62.43,6a10.88,10.88,0,0,1,19.45,9.74L60.26,58.93A10.86,10.86,0,0,1,50.53,64.94Z"></path>
                <path class="mantu-logo-4" d="M50.54,64.94a10.88,10.88,0,0,1-9.73-6L19.19,15.76A10.88,10.88,0,1,1,38.64,6h0L60.26,49.19a10.88,10.88,0,0,1-9.72,15.75Z"></path>
                <path class="mantu-logo-5" d="M10.87,64.94a10.88,10.88,0,0,1-10-15.07l18-43.17A10.88,10.88,0,0,1,39,15.06v0l-18,43.17A10.88,10.88,0,0,1,10.87,64.94Z"></path>
            </g>
            <path class="mantu-logo-1 svg-m hide" d="M149.91,55.23c-2.64,5.91-9.06,10.19-17.36,10.19-18.24,0-30.32-14.21-30.32-33C102.23,14.35,114.06,0,132.05,0c11.07,0,16.22,5.91,17.73,9.43V4.72a3,3,0,0,1,2.95-2.95h10.34A3,3,0,0,1,166,4.72V52.46c0,3.23.13,6,.26,8.07a2.93,2.93,0,0,1-2.74,3.12H153.11A3,3,0,0,1,150.18,61c-.15-1.49-.27-3.29-.27-5ZM134.56,51c8.68,0,15.22-7.18,15.22-18.5s-6.41-18-15.22-18-15.47,6.67-15.47,18S125.51,51,134.56,51Z"></path>
            <path class="mantu-logo-1 svg-m hide" d="M190.35,63.66H179.51a3,3,0,0,1-2.95-2.95h0v-56a3,3,0,0,1,2.95-2.95h10.33a3,3,0,0,1,2.95,2.95h0V9.44C196.56,3,204,.13,210.65.13,226,.13,233,11.08,233,24.66V60.71a3,3,0,0,1-2.94,2.95H219.26a3,3,0,0,1-2.95-2.95h0V27.56c0-6.92-3.39-12.33-11.45-12.33-7.29,0-11.57,5.66-11.57,12.83V60.71A3,3,0,0,1,190.35,63.66Z"></path>
            <path class="mantu-logo-1 svg-m hide" d="M328.16,57c-3.39,5.79-10.56,8.31-17.1,8.31-15,0-23.53-10.95-23.53-24.41V4.72a3,3,0,0,1,3-2.95h10.84a3,3,0,0,1,2.94,2.95h0V37.49c0,6.92,3.53,12.46,11.32,12.46,7.43,0,11.7-5,11.7-12.2v-33a3,3,0,0,1,3-2.95h10.84A3,3,0,0,1,344,4.72h0V52.46c0,3,.15,5.83.33,8a3,3,0,0,1-2.71,3.16H331.27A3,3,0,0,1,328.33,61C328.23,59.73,328.16,58.31,328.16,57Z"></path>
            <path class="mantu-logo-1 svg-m hide" d="M280.43,4.72V15A3,3,0,0,1,277.48,18H266.63V42.53c0,5.41,2.52,7.17,7.3,7.17a24.88,24.88,0,0,0,5.16-.51V60.92a2.91,2.91,0,0,1-2.21,2.83,29.84,29.84,0,0,1-7.23.79h-.45c-11.88-.13-19.29-7.28-19.29-19.12V18H240.3A2.94,2.94,0,0,1,237.36,15h0V4.72a3,3,0,0,1,2.94-2.95h37.18a3,3,0,0,1,2.95,2.95Z"></path>
        </g>
    </g>
</svg>